<?xml version="1.0" standalone="no"?>
<!DOCTYPE svg PUBLIC "-//W3C//DTD SVG 20010904//EN"
 "http://www.w3.org/TR/2001/REC-SVG-20010904/DTD/svg10.dtd">
<svg version="1.0" xmlns="http://www.w3.org/2000/svg"
 width="1376.000000pt" height="768.000000pt" viewBox="0 0 1376.000000 768.000000"
 preserveAspectRatio="xMidYMid meet">

<g transform="translate(0.000000,768.000000) scale(0.100000,-0.100000)"
fill="#000000" stroke="none">
<path d="M6674 6343 c-110 -93 -285 -240 -388 -328 -104 -88 -250 -212 -326
-275 -75 -63 -190 -160 -256 -216 -65 -55 -175 -147 -243 -205 -68 -57 -161
-135 -206 -174 -46 -38 -158 -133 -250 -210 -93 -77 -249 -209 -349 -293 -100
-85 -301 -255 -448 -379 l-267 -225 66 -76 c138 -161 185 -212 195 -212 9 0
236 191 487 409 35 31 92 79 126 106 34 28 124 105 201 171 76 67 283 245 459
395 962 821 1180 1007 1289 1101 56 48 108 88 117 88 9 0 59 -37 111 -82 52
-46 182 -157 288 -248 107 -91 244 -208 305 -260 61 -52 279 -239 485 -415
622 -532 940 -805 1049 -900 57 -49 120 -103 140 -120 20 -16 97 -81 171 -144
l134 -114 31 38 c16 21 72 87 123 147 52 60 92 112 90 117 -2 5 -187 165 -413
356 -225 192 -434 369 -462 394 l-53 45 0 583 0 583 -335 0 -336 0 1 -296 c1
-163 0 -298 -2 -300 -4 -3 -215 171 -523 431 -65 55 -167 141 -226 190 -59 50
-173 146 -254 215 -241 205 -319 270 -325 270 -3 0 -96 -75 -206 -167z"/>
<path d="M6862 5788 c-9 -9 -12 -123 -12 -454 l0 -441 90 -89 c86 -84 91 -91
86 -124 -3 -19 -5 -45 -6 -58 0 -31 -25 -23 -26 8 -1 23 -14 37 -82 90 -17 14
-32 31 -32 37 0 21 -73 62 -87 51 -10 -8 -13 -1 -13 32 0 36 -6 48 -35 76
l-35 33 0 350 c0 205 -4 351 -9 351 -5 0 -20 -12 -33 -27 -13 -16 -41 -43 -62
-62 l-39 -33 2 -187 c2 -185 2 -186 27 -209 24 -21 33 -66 22 -112 -9 -39 -99
-54 -138 -22 -13 10 -23 33 -27 58 -4 34 -1 45 23 74 l29 34 0 153 c0 84 -2
153 -5 153 -3 0 -20 -13 -38 -29 l-32 -30 0 -358 0 -359 -33 -35 c-29 -29
-113 -109 -348 -327 l-56 -52 -447 0 -447 1 -46 -38 c-25 -21 -78 -68 -117
-104 -39 -36 -91 -80 -116 -97 -25 -17 -65 -52 -89 -77 -25 -25 -48 -45 -53
-45 -9 0 -145 -114 -170 -142 -17 -19 -18 -92 -18 -1219 l0 -1199 -265 0 -265
0 0 -95 0 -95 2919 0 2919 0 6 31 c8 40 8 107 0 137 l-6 22 -264 0 -264 0 0
1203 0 1204 -91 76 c-81 68 -93 75 -115 67 -14 -6 -107 -10 -207 -10 l-182 0
-153 146 -153 147 -182 -1 c-114 -1 -183 -5 -185 -12 -2 -5 -21 -10 -43 -10
-36 0 -39 2 -39 29 0 36 4 37 276 40 l202 2 145 -140 144 -141 173 0 173 0
-23 25 c-23 24 -27 25 -158 25 l-135 0 -143 142 -143 141 -210 1 c-156 1 -213
-2 -222 -11 -7 -7 -28 -13 -46 -13 -31 0 -33 2 -33 35 l0 35 337 0 338 0 -28
28 -27 27 -267 0 c-203 0 -267 -3 -270 -12 -3 -8 -22 -13 -45 -13 -38 0 -39 1
-36 33 3 31 4 32 49 32 45 0 49 3 154 104 l108 104 -39 36 c-96 87 -416 362
-494 424 -47 38 -89 74 -95 81 -5 7 -37 34 -70 61 -92 74 -225 187 -261 220
-17 17 -54 48 -80 70 -27 21 -64 54 -83 72 -19 18 -39 33 -45 33 -6 0 -49 36
-94 80 -46 44 -87 80 -91 80 -4 0 -12 -5 -19 -12z m288 -639 c0 -5 -4 -9 -8
-9 -5 0 -9 7 -9 15 0 8 4 12 9 9 4 -3 8 -9 8 -15z m47 -81 c-3 -8 -6 -5 -6 6
-1 11 2 17 5 13 3 -3 4 -12 1 -19z m-486 -188 c39 -21 13 -75 -33 -68 -26 3
-37 41 -18 64 15 17 25 18 51 4z m1051 -99 c15 -17 14 -18 -8 -18 -17 0 -24 5
-24 18 0 11 3 19 8 19 4 0 15 -8 24 -19z m-136 -176 l-1 -90 -30 0 c-28 0 -30
3 -33 42 -3 37 0 42 20 45 21 3 23 9 26 68 6 95 19 45 18 -65z m-108 36 c-6
-2 -5 -7 3 -12 11 -7 11 -9 -2 -9 -17 0 -29 35 -21 59 3 10 9 6 18 -10 8 -16
9 -25 2 -28z m-3 -72 c8 -47 -2 -62 -36 -57 -20 2 -24 10 -27 45 -3 37 0 42
20 46 13 2 26 5 30 6 3 0 9 -17 13 -40z m223 -15 c-3 -36 -6 -39 -35 -42 -33
-3 -33 -3 -33 42 0 41 2 45 28 48 37 5 44 -3 40 -48z m107 1 c0 -38 -2 -40
-30 -40 -28 0 -30 3 -33 43 l-3 43 33 -3 c31 -3 33 -5 33 -43z m-765 -19 c6
-8 10 -25 8 -38 -2 -18 -9 -23 -33 -23 -24 0 -31 5 -33 23 -4 25 13 52 33 52
7 0 18 -7 25 -14z m682 -98 c43 -13 59 -35 37 -49 -8 -5 -51 -9 -96 -9 l-83 0
-1 -122 c0 -68 0 -144 1 -170 l1 -48 -85 0 -86 0 0 205 0 205 136 0 c77 0 154
-5 176 -12z m-377 -33 c0 -28 -3 -30 -42 -33 l-43 -3 0 36 0 36 43 -3 c39 -3
42 -5 42 -33z m1 -89 c9 -36 -2 -46 -46 -46 -45 0 -50 5 -43 43 5 24 10 27 44
27 33 0 40 -4 45 -24z m-848 -95 c18 -11 11 -51 -10 -65 -35 -22 -74 27 -48
59 14 17 38 19 58 6z m850 -23 c-3 -32 -5 -33 -48 -33 -35 0 -45 4 -48 18 -7
36 6 47 53 47 46 0 46 0 43 -32z m558 -57 c-8 -12 24 -19 54 -10 14 4 96 7
183 8 l159 1 111 -107 c62 -59 132 -126 157 -150 l44 -43 213 0 213 0 -2 -332
-3 -333 -37 -3 -38 -3 0 -78 0 -78 40 -7 c38 -6 40 -8 40 -44 l0 -37 -89 0
-88 -1 -7 96 c-4 53 -6 189 -6 302 l1 206 -193 189 c-106 104 -238 232 -294
286 l-100 97 -146 0 c-138 0 -147 -1 -153 -20 -5 -16 -15 -20 -46 -20 -36 0
-39 2 -39 29 0 36 9 61 22 61 5 0 7 -4 4 -9z m-556 -51 c0 -36 -6 -39 -55 -31
-34 5 -40 10 -40 31 0 22 6 26 40 30 51 7 55 5 55 -30z m993 -147 c56 -54 182
-176 280 -271 l179 -174 -6 -161 c-3 -89 -6 -173 -6 -186 0 -19 -3 -21 -14
-12 -11 9 -13 43 -12 151 0 77 1 141 1 141 0 1 -63 5 -140 8 l-140 6 -3 28
c-3 21 6 38 32 68 40 44 43 57 21 99 -18 35 -43 50 -85 50 -37 0 -79 -38 -81
-72 -2 -42 2 -53 31 -80 29 -27 30 -31 30 -117 l0 -88 123 1 122 1 -1 -30 c-1
-16 -2 -126 -3 -242 l-1 -212 -142 -3 -143 -3 -3 -52 -3 -53 144 0 144 0 5
-237 c3 -131 2 -242 -3 -247 -4 -5 -71 -8 -149 -7 l-140 2 0 -90 0 -91 45 0
c36 0 45 -3 45 -17 0 -10 1 -60 3 -111 l2 -92 -63 0 c-58 0 -67 3 -92 30 -58
62 -150 26 -150 -59 0 -78 94 -110 150 -51 25 27 34 30 89 30 47 0 61 -3 61
-15 0 -8 -8 -19 -19 -24 -25 -14 -45 -65 -37 -96 4 -15 22 -35 43 -47 32 -19
34 -23 17 -29 -10 -4 -42 -8 -71 -8 -44 -1 -56 3 -81 29 -39 39 -92 41 -127 5
-48 -47 -24 -125 43 -142 26 -6 92 20 92 36 0 14 100 24 140 14 18 -5 35 -14
38 -21 2 -8 -2 -10 -14 -5 -10 4 -15 2 -11 -3 3 -5 -6 -11 -21 -12 -14 -1 -29
-7 -33 -13 -5 -8 -8 -8 -13 0 -4 6 -14 11 -22 11 -8 0 -12 -4 -9 -10 3 -5 1
-10 -6 -10 -8 0 -9 -13 -5 -44 9 -55 7 -56 -145 -56 l-119 0 0 303 0 304 -245
241 -245 242 0 181 0 181 30 28 c62 58 26 155 -56 153 -38 -1 -83 -34 -86 -62
-1 -9 -4 65 -8 164 -7 193 -14 222 -65 283 -45 53 -102 81 -184 88 l-72 7 67
69 68 68 246 0 246 0 22 -25 c71 -82 203 0 152 96 -16 29 -67 51 -101 44 -16
-4 -39 -19 -50 -34 l-21 -28 -234 2 c-129 1 -247 0 -264 -4 -19 -4 -63 -39
-125 -98 -87 -86 -98 -93 -135 -93 -37 0 -40 2 -40 29 0 24 20 48 109 133
l109 105 249 6 c136 4 294 7 350 7 103 0 118 5 107 34 -5 12 -20 16 -64 16
-31 0 -90 3 -131 6 l-74 7 3 38 c4 34 2 39 -18 39 -19 0 -21 5 -18 43 l3 42
111 1 c62 1 117 4 123 8 6 4 11 18 11 32 l0 24 181 0 181 0 101 -97z m-1399
34 c13 -9 16 -20 12 -34 -8 -26 -24 -33 -53 -22 -27 10 -29 31 -7 53 19 19 25
20 48 3z m534 -40 c3 -32 0 -38 -23 -47 -37 -14 -45 -6 -45 46 0 45 0 45 33
42 29 -3 32 -6 35 -41z m110 -4 l3 -43 -35 0 c-36 0 -36 0 -36 46 0 45 0 45
33 42 30 -3 32 -6 35 -45z m-668 -112 c0 -6 -4 -13 -10 -16 -5 -3 -10 1 -10 9
0 9 5 16 10 16 6 0 10 -4 10 -9z m-1452 -18 c14 -26 -4 -62 -30 -63 -9 0 -38
30 -38 40 0 14 30 40 45 40 8 0 18 -8 23 -17z m1198 -33 c9 0 14 -11 14 -35 0
-19 -4 -35 -9 -35 -5 0 -7 8 -4 19 3 10 -1 22 -8 27 -9 5 -11 2 -6 -9 3 -9 2
-19 -3 -22 -6 -4 -10 0 -11 7 0 7 -2 22 -4 33 -3 11 -1 29 2 40 7 19 7 19 11
-2 2 -13 10 -23 18 -23z m406 -103 c-111 -112 -122 -127 -122 -160 0 -42 -5
-47 -43 -40 l-27 5 0 111 0 111 52 48 52 48 105 0 105 0 -122 -123z m-242 101
c0 -4 -4 -8 -10 -8 -5 0 -10 -12 -10 -26 0 -14 -4 -23 -10 -19 -5 3 -10 2 -10
-3 0 -5 -7 -9 -15 -9 -8 0 -15 6 -15 14 0 7 5 13 11 13 6 0 8 7 5 16 -5 12 -2
15 10 10 11 -4 15 -2 11 7 -3 8 3 13 14 13 11 0 19 -4 19 -8z m-333 -34 c8
-22 -10 -49 -32 -49 -10 0 -22 7 -28 16 -15 24 -1 49 28 49 15 0 28 -7 32 -16z
m-523 -30 c25 -9 20 -53 -6 -64 -31 -12 -63 22 -48 51 11 20 27 23 54 13z
m836 -124 l0 -110 -25 0 c-24 0 -25 3 -25 60 0 38 4 60 11 60 7 0 9 11 6 27
-5 28 10 73 25 73 4 0 8 -49 8 -110z m1125 69 c14 -42 -44 -68 -65 -30 -12 24
-4 49 18 54 25 5 41 -3 47 -24z m-1425 -71 l-5 -63 -3 49 c-3 43 2 76 10 76 2
0 1 -28 -2 -62z m1976 41 c19 -21 18 -21 -5 -40 -38 -31 -73 -2 -55 45 9 22
37 20 60 -5z m-3590 -103 c15 -12 17 -18 8 -33 -14 -22 -54 -29 -65 -11 -12
18 -11 24 7 42 19 20 25 20 50 2z m290 -161 c-6 -18 -8 -17 114 -19 l95 -1 5
-175 5 -175 25 2 c14 0 33 1 43 2 15 1 17 16 17 171 0 129 3 170 13 170 6 1
73 1 147 0 74 0 149 4 166 9 61 18 64 10 64 -183 l0 -173 76 4 77 4 -17 -25
c-26 -41 -21 -95 13 -131 l30 -30 -7 -185 -6 -185 -82 -75 c-45 -41 -82 -80
-83 -87 -2 -18 -35 -33 -75 -33 -28 0 -36 -4 -36 -17 0 -14 2 -15 9 -5 7 11 9
11 14 -1 7 -17 -45 -71 -58 -60 -4 5 -5 3 -2 -3 3 -6 -13 -29 -37 -52 -34 -33
-45 -39 -56 -29 -12 10 -12 9 -2 -4 9 -13 5 -22 -28 -54 l-40 -39 0 -223 c0
-194 -2 -223 -15 -223 -9 0 -18 8 -21 18 -19 57 -30 75 -57 88 -39 20 -90 11
-115 -21 l-20 -25 -341 -6 c-187 -3 -344 -3 -349 0 -5 3 -7 19 -4 36 l4 30
225 0 c210 0 227 -1 250 -20 38 -29 103 -27 133 5 30 32 23 90 -15 123 l-26
22 60 0 c51 0 64 -4 85 -25 18 -17 36 -25 61 -25 49 0 74 15 91 56 12 29 12
39 0 68 -27 64 -99 77 -146 26 -25 -27 -34 -30 -90 -30 l-63 0 27 21 c33 26
35 75 5 113 -28 36 -86 36 -119 1 l-24 -25 -230 2 -231 3 0 205 0 205 46 3
c34 2 48 8 51 20 7 27 8 300 1 380 -6 71 -8 76 -54 127 -40 43 -49 60 -49 89
0 20 3 36 6 36 3 0 19 -11 36 -25 24 -20 39 -25 78 -23 84 4 80 21 80 -364 l0
-340 -25 -30 c-50 -59 -44 -120 16 -152 34 -18 36 -18 73 -1 51 25 72 71 53
118 -8 17 -24 40 -35 51 -21 18 -22 25 -22 367 0 325 1 349 18 350 50 3 73 7
79 13 4 4 9 78 11 164 2 86 5 163 8 171 3 11 19 12 75 7 66 -7 71 -6 76 13 3
12 10 21 15 21 6 0 8 -7 4 -15z m2122 -1037 l2 -958 -470 0 -470 0 0 944 c0
519 3 952 6 960 6 15 53 16 468 14 l461 -3 3 -957z m1482 755 c0 -24 -3 -33
-9 -25 -7 12 -4 62 5 62 2 0 4 -17 4 -37z m-2675 -168 c0 -33 -25 -45 -50 -25
-18 15 -19 46 -2 54 31 13 52 1 52 -29z m1510 0 c0 -25 -4 -31 -26 -33 -35 -4
-54 20 -39 48 8 15 19 20 38 18 23 -2 27 -8 27 -33z m-76 -79 c7 -5 11 -74 11
-204 l0 -197 113 -110 c63 -60 173 -168 246 -238 l131 -128 -2 -292 -3 -292
-27 -3 -28 -3 -2 233 c-3 309 -3 305 -18 331 -7 12 -116 121 -241 242 l-227
220 -1 255 -1 255 19 -31 c11 -18 24 -35 30 -38z m1310 -30 c9 -11 10 -20 1
-35 -21 -40 -79 -15 -65 29 7 24 46 27 64 6z m-2753 -405 c-16 -16 -25 -34
-21 -40 3 -7 3 -11 -2 -10 -20 4 -27 -2 -13 -12 13 -9 12 -10 -2 -5 -14 4 -18
0 -18 -17 0 -18 2 -19 10 -7 7 10 10 11 10 2 0 -7 -85 -98 -190 -202 l-190
-189 0 -210 c0 -183 -2 -210 -15 -205 -8 4 -15 14 -15 23 0 13 -2 13 -9 2 -12
-19 -24 187 -18 323 5 108 6 109 39 142 94 93 454 434 457 434 3 0 -8 -13 -23
-29z m2892 -61 c43 0 43 0 40 -32 l-3 -33 -95 0 -95 0 -3 28 c-4 33 25 49 78
42 19 -3 54 -5 78 -5z m-2997 -291 l-181 -175 0 -247 0 -247 -30 0 -30 0 0
263 0 262 207 201 208 201 3 -41 4 -41 -181 -176z m1797 -22 l132 -127 -2
-263 -3 -262 -30 0 -30 0 -3 248 -2 248 -179 175 c-175 172 -199 203 -185 246
6 21 -17 42 302 -265z m-2904 187 c23 -22 20 -43 -9 -56 -27 -12 -55 2 -55 28
0 14 27 44 40 44 5 0 16 -7 24 -16z m2906 -606 l0 -238 -35 0 -35 0 0 133 c-1
72 -5 152 -9 177 -8 37 -6 48 10 68 44 56 -1 142 -74 142 -50 0 -91 -49 -83
-98 6 -40 28 -68 60 -76 29 -7 36 -50 36 -222 l0 -124 -85 0 -85 0 0 385 0
385 150 -147 150 -146 0 -239z m-1620 147 l0 -376 -82 3 -83 3 0 45 c1 25 2
96 3 157 l2 112 29 16 c47 24 61 44 61 86 0 105 -137 124 -170 24 -10 -31 -9
-40 9 -71 13 -22 19 -44 15 -59 -3 -12 -9 -90 -12 -171 l-7 -149 -32 -3 -33
-3 0 237 0 238 143 143 c78 78 145 142 150 143 4 0 7 -169 7 -375z m2538 306
c8 -4 12 -19 10 -32 -2 -18 -10 -25 -30 -27 -25 -3 -28 0 -28 27 0 25 9 37 30
40 3 0 11 -3 18 -8z m152 -73 c0 -6 -3 -8 -7 -5 -3 4 -12 2 -19 -4 -8 -7 -14
-7 -19 1 -4 7 -12 7 -26 0 -18 -10 -27 -1 -12 13 11 12 83 8 83 -5z m80 3 c0
-5 -7 -11 -15 -15 -8 -3 -15 -1 -15 5 0 6 -4 7 -10 4 -5 -3 -10 -1 -10 4 0 6
11 11 25 11 14 0 25 -4 25 -9z m80 0 c0 -5 -7 -11 -15 -15 -8 -3 -15 -1 -15 5
0 6 -4 7 -10 4 -5 -3 -10 -1 -10 4 0 6 11 11 25 11 14 0 25 -4 25 -9z m-3920
-91 c0 -5 12 -16 28 -24 24 -14 4 -15 -229 -16 -226 0 -258 2 -263 16 -3 9 -4
20 0 25 7 12 464 12 464 -1z m350 -60 c0 -14 -31 -40 -41 -35 -23 15 2 58 27
48 8 -3 14 -9 14 -13z m2816 -7 c-3 -8 -6 -17 -6 -19 0 -2 -9 -4 -20 -4 -22 0
-26 20 -9 37 15 15 42 4 35 -14z m-587 -7 c9 -11 10 -20 1 -36 -13 -25 -47
-24 -63 2 -22 34 36 66 62 34z m858 -32 c-3 -3 -12 -4 -19 -1 -8 3 -5 6 6 6
11 1 17 -2 13 -5z m-3409 -33 l-23 -30 -232 0 -233 -1 0 30 0 30 256 0 256 0
-24 -29z m3382 -46 c10 -12 10 -18 0 -30 -25 -30 -61 -7 -46 30 3 8 12 15 19
15 8 0 20 -7 27 -15z"/>
<path d="M8274 3808 c-50 -24 -57 -96 -14 -139 29 -30 29 -30 32 -162 l3 -132
28 -3 27 -3 0 136 0 137 30 28 c42 39 38 101 -9 137 -19 15 -68 15 -97 1z m76
-59 c9 -15 8 -24 -1 -35 -18 -21 -57 -18 -64 6 -14 44 44 69 65 29z"/>
<path d="M5146 2797 c-5 -26 -6 -51 -2 -54 12 -13 17 6 14 53 l-3 49 -9 -48z"/>
<path d="M5709 2231 c7 -5 10 -14 7 -20 -10 -15 5 -13 27 3 25 19 21 26 -15
26 -23 0 -29 -3 -19 -9z"/>
<path d="M5259 2104 c-12 -15 -11 -16 11 -9 46 14 58 24 29 25 -15 0 -33 -7
-40 -16z"/>
<path d="M5348 2113 c7 -3 16 -2 19 1 4 3 -2 6 -13 5 -11 0 -14 -3 -6 -6z"/>
<path d="M5575 2090 c3 -5 8 -10 11 -10 2 0 4 5 4 10 0 6 -5 10 -11 10 -5 0
-7 -4 -4 -10z"/>
<path d="M7092 2288 l3 -73 73 -3 72 -3 0 76 0 75 -75 0 -76 0 3 -72z"/>
<path d="M6337 5332 c-14 -15 -15 -45 -10 -230 5 -228 3 -242 -43 -242 -36 0
-43 31 -43 181 0 73 -4 135 -9 138 -5 3 -14 15 -20 26 -10 16 -12 -32 -11
-219 l2 -238 -174 -169 -174 -168 -303 -1 -302 0 -38 -35 -37 -34 399 -1 399
0 105 103 c58 56 148 143 200 194 l94 92 -3 310 c-2 171 -7 311 -10 311 -3 0
-13 -8 -22 -18z"/>
<path d="M6116 5141 c-17 -19 -17 -19 3 -14 12 3 21 12 21 19 0 18 -4 18 -24
-5z"/>
<path d="M6520 5065 c-10 -13 -9 -15 9 -15 12 0 21 6 21 15 0 8 -4 15 -9 15
-5 0 -14 -7 -21 -15z"/>
<path d="M5811 4880 l-34 -29 28 -25 c14 -13 33 -22 41 -19 8 3 14 0 14 -6 0
-6 5 -11 10 -11 6 0 10 12 10 26 0 23 -3 25 -30 19 -19 -4 -30 -3 -30 4 0 6
-8 11 -17 12 -15 0 -15 2 2 10 12 6 26 19 33 30 16 25 14 24 -27 -11z"/>
<path d="M6060 4821 c0 -6 5 -13 10 -16 6 -3 10 1 10 9 0 9 -4 16 -10 16 -5 0
-10 -4 -10 -9z"/>
<path d="M5910 4788 c-52 -11 -79 -40 -80 -84 0 -61 60 -105 115 -84 39 15 54
33 44 53 -8 13 -13 14 -35 2 -31 -16 -61 -9 -67 15 -7 28 11 50 43 50 26 0 29
3 27 30 -1 16 -2 29 -2 29 0 -1 -20 -6 -45 -11z"/>
<path d="M5636 4738 c-29 -29 -51 -52 -49 -52 2 1 19 -14 37 -32 29 -29 41
-34 79 -34 37 0 49 5 66 26 29 36 27 85 -4 118 -38 41 -68 35 -129 -26z m99
-33 c0 -25 -4 -31 -26 -33 -35 -4 -54 20 -39 48 8 15 19 20 38 18 23 -2 27 -8
27 -33z"/>
<path d="M4490 645 l0 -266 43 3 42 3 2 90 c1 50 2 104 2 121 2 70 96 110 152
65 22 -17 23 -27 27 -150 l4 -131 44 0 44 0 0 123 c0 143 -9 183 -51 223 -28
27 -36 29 -104 29 -57 0 -77 -4 -94 -19 l-20 -18 -3 93 -3 94 -42 3 -43 3 0
-266z"/>
<path d="M8383 844 c-8 -3 -13 -24 -13 -50 0 -40 -2 -44 -25 -44 -22 0 -25 -4
-25 -35 0 -30 3 -35 24 -35 28 0 38 -28 30 -82 -4 -20 -3 -63 1 -95 6 -46 13
-63 41 -91 33 -33 36 -34 99 -30 35 2 67 6 70 9 3 3 0 20 -6 37 -10 28 -14 31
-50 29 -26 -1 -43 4 -49 13 -6 8 -10 59 -10 113 l0 97 45 0 c45 0 45 0 45 35
0 35 0 35 -44 35 l-45 0 -3 48 c-3 46 -4 47 -38 49 -19 1 -41 0 -47 -3z"/>
<path d="M5837 760 c-21 -4 -51 -17 -67 -28 l-29 -22 -37 25 c-46 31 -122 34
-177 6 -36 -18 -37 -18 -37 0 0 16 -7 19 -43 19 l-43 0 0 -187 1 -188 45 0 45
0 0 90 c1 139 3 154 30 180 35 36 96 35 124 -1 19 -24 21 -40 21 -150 l0 -124
44 0 44 0 4 125 c3 120 4 126 30 152 38 38 92 37 124 -1 22 -25 24 -35 24
-152 l0 -124 45 0 45 0 0 123 c0 67 -5 138 -10 158 -20 71 -98 113 -183 99z"/>
<path d="M7273 760 c-17 -4 -48 -17 -68 -29 -33 -19 -39 -20 -49 -7 -30 39
-140 48 -193 16 -33 -20 -33 -20 -33 0 0 17 -7 20 -45 20 l-45 0 0 -190 0
-190 45 0 45 0 0 110 c0 151 21 190 103 190 61 0 72 -23 75 -172 l4 -129 41 3
42 3 5 125 c3 69 9 131 13 138 5 6 22 19 38 28 24 12 37 13 62 5 52 -18 61
-42 65 -178 l4 -123 44 0 44 0 0 113 c-1 125 -10 178 -38 216 -32 43 -98 65
-159 51z"/>
<path d="M9247 756 c-20 -8 -44 -19 -52 -26 -13 -10 -15 -9 -15 9 0 18 -6 21
-45 21 l-45 0 0 -190 0 -190 45 0 45 0 0 98 c0 155 16 188 100 202 33 5 35 7
35 45 0 46 -11 51 -68 31z"/>
<path d="M5035 744 c-69 -36 -105 -96 -105 -174 0 -66 19 -109 65 -147 85 -70
203 -64 277 14 35 37 48 73 48 133 0 27 -5 61 -11 77 -14 38 -57 83 -96 99
-43 19 -141 18 -178 -2z m129 -68 c47 -19 66 -51 66 -109 0 -40 -5 -53 -29
-78 -42 -42 -110 -42 -152 0 -24 25 -29 38 -29 78 0 57 19 89 64 109 39 17 40
17 80 0z"/>
<path d="M6215 744 c-70 -36 -105 -96 -105 -176 0 -63 23 -111 71 -150 68 -55
199 -55 261 1 l29 26 -25 24 -26 24 -43 -23 c-34 -18 -51 -21 -82 -16 -37 7
-95 53 -95 75 0 7 48 11 145 11 l145 0 0 28 c0 76 -46 153 -107 178 -43 19
-131 18 -168 -2z m156 -83 c52 -53 42 -61 -71 -61 -113 0 -123 8 -71 61 23 23
38 29 71 29 33 0 48 -6 71 -29z"/>
<path d="M7608 744 c-41 -18 -46 -29 -23 -61 14 -20 17 -20 57 -6 56 19 117
11 141 -18 32 -40 19 -51 -65 -54 -116 -5 -168 -41 -168 -117 0 -93 140 -150
225 -92 24 17 36 18 33 2 -2 -9 12 -14 40 -16 l42 -3 -1 133 c0 210 -21 241
-162 245 -58 2 -93 -2 -119 -13z m192 -216 c-1 -34 -15 -60 -41 -73 -33 -18
-72 -19 -100 -5 -22 12 -26 59 -7 78 17 17 148 16 148 0z"/>
<path d="M8029 737 c-64 -43 -78 -110 -31 -157 29 -28 85 -50 132 -50 31 0 70
-26 70 -45 0 -38 -99 -47 -169 -15 -24 11 -44 20 -46 20 -2 0 -6 -11 -9 -24
-3 -13 -8 -31 -12 -39 -14 -37 189 -67 247 -37 64 33 91 88 70 142 -13 34 -67
63 -144 77 -70 13 -77 17 -77 41 0 39 63 48 161 25 20 -5 27 -3 31 12 3 10 9
25 12 34 9 21 -52 39 -136 39 -51 0 -72 -5 -99 -23z"/>
<path d="M8730 741 c-57 -30 -93 -83 -98 -145 -9 -116 52 -198 166 -219 65
-13 183 30 182 66 0 7 -11 20 -25 30 -23 16 -25 16 -60 -4 -50 -30 -114 -20
-150 22 -14 17 -25 35 -25 40 0 5 63 9 145 9 l145 0 0 28 c0 76 -46 153 -107
178 -47 20 -132 18 -173 -5z m166 -85 c19 -19 34 -39 34 -45 0 -7 -35 -11
-105 -11 -95 0 -105 2 -105 18 0 19 34 55 60 65 43 16 82 7 116 -27z"/>
<path d="M6560 591 c0 -22 5 -43 11 -46 6 -4 51 -4 100 0 l90 7 -3 37 -3 36
-97 3 -98 3 0 -40z"/>
</g>
</svg>
